<?xml version="1.0" encoding="utf-8"?>
<!-- Generator: Adobe Illustrator 16.0.0, SVG Export Plug-In . SVG Version: 6.00 Build 0)  -->
<!DOCTYPE svg PUBLIC "-//W3C//DTD SVG 1.1//EN" "http://www.w3.org/Graphics/SVG/1.1/DTD/svg11.dtd">
<svg version="1.1" id="Layer_1" xmlns="http://www.w3.org/2000/svg" xmlns:xlink="http://www.w3.org/1999/xlink" x="0px" y="0px"
	 width="338px" height="199.648px" viewBox="0 0 338 199.648" enable-background="new 0 0 338 199.648" xml:space="preserve">
<g>
	<g opacity="0.5">
		<path fill="#E8DCD1" d="M325.5,54.648h-273c-6.903,0-12.5-5.598-12.5-12.5c0-6.903,5.597-12.5,12.5-12.5h273
			c6.902,0,12.5,5.597,12.5,12.5C338,49.051,332.402,54.648,325.5,54.648z"/>
		<path fill="#E8DCD1" d="M302.5,78.648h-273c-6.903,0-12.5-5.598-12.5-12.5c0-6.903,5.597-12.5,12.5-12.5h273
			c6.902,0,12.5,5.597,12.5,12.5C315,73.051,309.402,78.648,302.5,78.648z"/>
		<path fill="#E8DCD1" d="M324.5,127.648h-247c-6.903,0-12.5-5.598-12.5-12.5c0-6.903,5.597-12.5,12.5-12.5h247
			c6.902,0,12.5,5.597,12.5,12.5C337,122.051,331.402,127.648,324.5,127.648z"/>
		<path fill="#E8DCD1" d="M259.5,151.648h-247c-6.903,0-12.5-5.598-12.5-12.5c0-6.903,5.597-12.5,12.5-12.5h247
			c6.902,0,12.5,5.597,12.5,12.5C272,146.051,266.402,151.648,259.5,151.648z"/>
		<path fill="#E8DCD1" d="M300.5,175.648h-255c-6.903,0-12.5-5.598-12.5-12.5c0-6.903,5.597-12.5,12.5-12.5h255
			c6.902,0,12.5,5.597,12.5,12.5C313,170.051,307.402,175.648,300.5,175.648z"/>
		<path fill="#E8DCD1" d="M268.5,199.648h-231c-6.904,0-12.5-5.598-12.5-12.5c0-6.903,5.596-12.5,12.5-12.5h231
			c6.902,0,12.5,5.597,12.5,12.5C281,194.051,275.402,199.648,268.5,199.648z"/>
		<path fill="#E8DCD1" d="M282.5,103.648h-230c-6.904,0-12.5-5.597-12.5-12.5c0-6.904,5.596-12.5,12.5-12.5h230
			c6.902,0,12.5,5.596,12.5,12.5C295,98.052,289.402,103.648,282.5,103.648z"/>
		<path fill="#FFFFFF" d="M290.5,102.648h-4c-6.627,0-12-5.373-12-12s5.373-12,12-12h4c6.627,0,12,5.373,12,12
			S297.127,102.648,290.5,102.648z"/>
		<path fill="#FFFFFF" d="M70.5,126.648h-4c-6.351,0-11.5-5.149-11.5-11.5c0-6.352,5.149-11.5,11.5-11.5h4
			c6.351,0,11.5,5.148,11.5,11.5C82,121.499,76.851,126.648,70.5,126.648z"/>
		<path fill="#FFFFFF" d="M266.5,150.648h-4c-6.352,0-11.5-5.148-11.5-11.5s5.148-11.5,11.5-11.5h4c6.352,0,11.5,5.148,11.5,11.5
			S272.852,150.648,266.5,150.648z"/>
		<path fill="#FFFFFF" d="M38.5,174.648h-4c-6.351,0-11.5-5.148-11.5-11.5c0-6.353,5.149-11.5,11.5-11.5h4
			c6.351,0,11.5,5.147,11.5,11.5C50,169.5,44.851,174.648,38.5,174.648z"/>
	</g>
	<g>
		<g>
			<path fill="#2D0909" d="M194.5,159.648h-49.483c-1.162,0-2.171-0.801-2.435-1.934l-13.067-56.066H116.5
				c-1.381,0-2.5-1.119-2.5-2.5s1.119-2.5,2.5-2.5h15c1.162,0,2.171,0.801,2.435,1.933l13.067,56.067H194.5
				c1.381,0,2.5,1.119,2.5,2.5S195.881,159.648,194.5,159.648z"/>
		</g>
		<g>
			<path fill="#2D0909" d="M194.861,147.658c-0.166,0-0.311-0.004-0.428-0.01H155.5c-1.381,0-2.5-1.119-2.5-2.5s1.119-2.5,2.5-2.5
				h38.998c0.048,0,0.096,0.001,0.143,0.004c0.387,0.021,0.914-0.033,1.209-0.111c1.635-3.057,6.006-17.769,8.461-26.629
				c0.021-0.078,0.047-0.155,0.075-0.23c0.36-0.951,0.589-2.24,0.507-2.781c-0.408-0.184-1.373-0.295-1.972-0.256
				c-0.052,0.003-0.104,0.005-0.155,0.005H147.5c-1.381,0-2.5-1.119-2.5-2.5s1.119-2.5,2.5-2.5h55.193
				c0.982-0.051,4.896-0.071,6.49,2.611c1.438,2.422,0.356,5.903-0.086,7.097c-1.199,4.319-6.867,24.502-9.188,28.137
				C198.693,147.4,196.146,147.658,194.861,147.658z"/>
		</g>
		<g>
			<path fill="#2D0909" d="M152.666,178.148c-4.227,0-7.666-3.438-7.666-7.666c0-4.229,3.439-7.667,7.666-7.667
				c4.228,0,7.667,3.438,7.667,7.667C160.333,174.71,156.894,178.148,152.666,178.148z M152.666,167.815
				c-1.47,0-2.666,1.195-2.666,2.667c0,1.47,1.196,2.666,2.666,2.666c1.471,0,2.667-1.196,2.667-2.666
				C155.333,169.011,154.137,167.815,152.666,167.815z"/>
		</g>
		<g>
			<path fill="#2D0909" d="M188.666,178.148c-4.229,0-7.666-3.438-7.666-7.666c0-4.229,3.438-7.667,7.666-7.667
				s7.667,3.438,7.667,7.667C196.333,174.71,192.895,178.148,188.666,178.148z M188.666,167.815c-1.471,0-2.666,1.195-2.666,2.667
				c0,1.47,1.195,2.666,2.666,2.666s2.667-1.196,2.667-2.666C191.333,169.011,190.137,167.815,188.666,167.815z"/>
		</g>
		<g>
			<g>
				<circle fill="#2D0909" cx="164.667" cy="123.482" r="3.167"/>
			</g>
			<g>
				<circle fill="#2D0909" cx="183.667" cy="123.482" r="3.167"/>
			</g>
			<g>
				<g>
					<path fill="#2D0909" d="M182.189,135.993c-0.396,0.466-1.174,0.518-1.769,0.17c-4.308-2.521-7.144-2.962-12.006-1.844
						c-0.672,0.154-1.396-0.13-1.633-0.693l0,0c-0.236-0.563,0.189-1.22,0.969-1.398c5.644-1.298,8.935-0.789,13.933,2.142
						C182.375,134.773,182.585,135.527,182.189,135.993L182.189,135.993z"/>
				</g>
			</g>
		</g>
		<g>
			<path fill="#F04A48" d="M176.5,93.648c-0.553,0-1-0.448-1-1v-17c0-0.552,0.447-1,1-1s1,0.448,1,1v17
				C177.5,93.201,177.053,93.648,176.5,93.648z"/>
		</g>
		<g>
			<path fill="#F04A48" d="M186.014,94.963c-0.147,0-0.3-0.032-0.441-0.104c-0.495-0.245-0.698-0.845-0.453-1.34l7.538-15.238
				c0.245-0.494,0.844-0.698,1.34-0.453c0.495,0.245,0.698,0.845,0.453,1.34l-7.538,15.238
				C186.736,94.759,186.382,94.963,186.014,94.963z"/>
		</g>
		<g>
			<path fill="#F04A48" d="M193.598,100.606c-0.316,0-0.629-0.149-0.822-0.43c-0.315-0.453-0.203-1.076,0.25-1.392l13.953-9.71
				c0.453-0.315,1.076-0.204,1.394,0.25c0.315,0.454,0.203,1.077-0.25,1.392l-13.954,9.71
				C193.993,100.548,193.794,100.606,193.598,100.606z"/>
		</g>
		<g>
			<path fill="#F04A48" d="M166.551,94.963c-0.368,0-0.723-0.204-0.897-0.557l-7.538-15.238c-0.245-0.495-0.042-1.095,0.453-1.34
				c0.495-0.246,1.094-0.042,1.34,0.453l7.538,15.238c0.245,0.495,0.042,1.095-0.453,1.34
				C166.851,94.93,166.699,94.963,166.551,94.963z"/>
		</g>
		<g>
			<path fill="#F04A48" d="M158.968,100.606c-0.197,0-0.396-0.059-0.57-0.18l-13.954-9.71c-0.453-0.314-0.565-0.938-0.25-1.392
				s0.938-0.565,1.392-0.25l13.954,9.71c0.453,0.315,0.565,0.938,0.25,1.392C159.596,100.457,159.284,100.606,158.968,100.606z"/>
		</g>
	</g>
	<g opacity="0.8">
		<g>
			<g>
				<g>
					<path fill="#3AA96A" d="M279.161,102.969c-0.536,0-1.231-0.588-1.899-1.577l-0.012,0.019l-0.011-0.019
						c-0.668,0.988-1.364,1.577-1.9,1.577c-0.312,0-0.563-0.188-0.638-0.479c-0.146-0.565,0.438-1.332,1.554-2.081l-0.019-0.01
						l0.019-0.01c-1.116-0.75-1.7-1.517-1.554-2.081c0.076-0.292,0.326-0.48,0.638-0.48c0.536,0,1.232,0.588,1.9,1.578l0.011-0.02
						l0.012,0.02c0.668-0.989,1.363-1.578,1.899-1.578c0.312,0,0.563,0.188,0.638,0.48c0.146,0.564-0.438,1.332-1.554,2.081
						l0.019,0.01l-0.019,0.01c1.116,0.75,1.7,1.516,1.554,2.081C279.725,102.781,279.473,102.969,279.161,102.969z"/>
				</g>
			</g>
			<g>
				<g>
					<path fill="#3AA96A" d="M279.161,110.969c-0.536,0-1.231-0.588-1.899-1.577l-0.012,0.019l-0.011-0.019
						c-0.668,0.988-1.364,1.577-1.9,1.577c-0.312,0-0.563-0.188-0.638-0.479c-0.146-0.565,0.438-1.332,1.554-2.081l-0.019-0.01
						l0.019-0.01c-1.116-0.75-1.7-1.517-1.554-2.081c0.076-0.292,0.326-0.48,0.638-0.48c0.536,0,1.232,0.588,1.9,1.578l0.011-0.02
						l0.012,0.02c0.668-0.989,1.363-1.578,1.899-1.578c0.312,0,0.563,0.188,0.638,0.48c0.146,0.564-0.438,1.332-1.554,2.081
						l0.019,0.01l-0.019,0.01c1.116,0.75,1.7,1.516,1.554,2.081C279.725,110.781,279.473,110.969,279.161,110.969z"/>
				</g>
			</g>
			<g>
				<g>
					<path fill="#3AA96A" d="M275.161,106.969c-0.535,0-1.231-0.588-1.899-1.577l-0.012,0.019l-0.011-0.019
						c-0.668,0.989-1.365,1.577-1.9,1.577c-0.312,0-0.563-0.188-0.638-0.479c-0.146-0.565,0.438-1.332,1.555-2.082l-0.02-0.01
						l0.02-0.01c-1.117-0.75-1.701-1.518-1.555-2.082c0.076-0.292,0.326-0.48,0.638-0.48c0.535,0,1.232,0.588,1.9,1.578l0.011-0.02
						l0.012,0.02c0.668-0.99,1.364-1.578,1.899-1.578c0.312,0,0.563,0.188,0.638,0.48c0.146,0.564-0.438,1.332-1.555,2.082
						l0.02,0.01l-0.02,0.01c1.115,0.75,1.701,1.516,1.555,2.081C275.725,106.781,275.473,106.969,275.161,106.969z"/>
				</g>
			</g>
			<g>
				<g>
					<path fill="#3AA96A" d="M283.161,106.969c-0.535,0-1.231-0.588-1.899-1.577l-0.012,0.019l-0.011-0.019
						c-0.668,0.989-1.365,1.577-1.9,1.577c-0.312,0-0.563-0.188-0.638-0.479c-0.146-0.565,0.438-1.332,1.555-2.082l-0.02-0.01
						l0.02-0.01c-1.117-0.75-1.701-1.518-1.555-2.082c0.076-0.292,0.326-0.48,0.638-0.48c0.535,0,1.232,0.588,1.9,1.578l0.011-0.02
						l0.012,0.02c0.668-0.99,1.364-1.578,1.899-1.578c0.312,0,0.563,0.188,0.638,0.48c0.146,0.564-0.438,1.332-1.555,2.082
						l0.02,0.01l-0.02,0.01c1.115,0.75,1.701,1.516,1.555,2.081C283.725,106.781,283.473,106.969,283.161,106.969z"/>
				</g>
			</g>
		</g>
		<g>
			<g>
				<g>
					<path fill="#FFCD00" d="M101.25,26.637l-0.347-0.333c-0.992-0.955-1.796-1.76-2.776-2.776l-0.334-0.347l0.334-0.348
						c0.98-1.017,1.784-1.82,2.776-2.775l0.347-0.333l0.347,0.333c0.992,0.955,1.796,1.759,2.776,2.775l0.334,0.348l-0.334,0.347
						c-0.98,1.017-1.784,1.821-2.776,2.776L101.25,26.637z M99.183,23.181c0.712,0.733,1.348,1.369,2.067,2.066
						c0.719-0.697,1.354-1.333,2.067-2.066c-0.712-0.734-1.348-1.37-2.067-2.067C100.531,21.812,99.896,22.447,99.183,23.181z"/>
				</g>
			</g>
			<g>
				<g>
					<path fill="#FFCD00" d="M101.25,37.072l-0.347-0.333c-0.998-0.96-1.802-1.765-2.776-2.776l-0.334-0.347l0.334-0.347
						c0.98-1.018,1.784-1.821,2.776-2.776l0.347-0.333l0.347,0.333c0.992,0.955,1.796,1.759,2.776,2.776l0.334,0.347l-0.334,0.347
						c-0.974,1.012-1.778,1.815-2.776,2.776L101.25,37.072z M99.183,33.616c0.708,0.73,1.344,1.366,2.067,2.067
						c0.723-0.701,1.358-1.336,2.067-2.067c-0.712-0.734-1.348-1.37-2.067-2.067C100.531,32.246,99.896,32.882,99.183,33.616z"/>
				</g>
			</g>
			<g>
				<g>
					<path fill="#FFCD00" d="M96.033,31.854l-0.347-0.333c-1.005-0.967-1.809-1.771-2.776-2.776l-0.333-0.347l0.333-0.348
						c0.967-1.005,1.771-1.809,2.776-2.775l0.347-0.333l0.347,0.333c1.011,0.974,1.815,1.777,2.776,2.775l0.333,0.348l-0.333,0.347
						c-0.96,0.998-1.765,1.802-2.776,2.776L96.033,31.854z M93.966,28.398c0.705,0.727,1.34,1.361,2.067,2.066
						c0.73-0.708,1.366-1.344,2.067-2.066c-0.701-0.724-1.337-1.358-2.067-2.067C95.306,27.036,94.67,27.672,93.966,28.398z"/>
				</g>
			</g>
			<g>
				<g>
					<path fill="#FFCD00" d="M106.467,31.854l-0.347-0.333c-1.011-0.975-1.815-1.778-2.776-2.776l-0.333-0.347l0.333-0.348
						c0.96-0.998,1.765-1.802,2.776-2.775l0.347-0.333l0.347,0.333c1.005,0.967,1.809,1.771,2.776,2.775l0.333,0.348l-0.333,0.347
						c-0.967,1.005-1.771,1.81-2.776,2.776L106.467,31.854z M104.4,28.398c0.701,0.723,1.337,1.357,2.067,2.066
						c0.727-0.705,1.362-1.34,2.067-2.066c-0.705-0.728-1.34-1.362-2.067-2.067C105.737,27.04,105.101,27.676,104.4,28.398z"/>
				</g>
			</g>
		</g>
		<g>
			<g>
				<g>
					<path fill="#D65690" d="M295.07,148.09l-0.48-0.016c-1.354-0.044-2.488-0.104-3.919-0.203l-0.479-0.034l0.016-0.48
						c0.047-1.414,0.105-2.551,0.204-3.923l0.034-0.479l0.48,0.016c1.404,0.048,2.54,0.106,3.922,0.206l0.479,0.035l-0.017,0.48
						c-0.047,1.401-0.105,2.538-0.205,3.92L295.07,148.09z M291.223,146.906c1.033,0.068,1.933,0.115,2.92,0.151
						c0.067-1.005,0.114-1.902,0.152-2.919c-1.004-0.068-1.902-0.115-2.921-0.153C291.309,144.983,291.261,145.882,291.223,146.906z
						"/>
				</g>
			</g>
			<g>
				<g>
					<path fill="#D65690" d="M302.057,155.844l-0.481-0.016c-1.402-0.047-2.539-0.105-3.923-0.206l-0.479-0.035l0.016-0.479
						c0.05-1.422,0.108-2.558,0.205-3.92l0.034-0.479l0.481,0.017c1.355,0.044,2.49,0.104,3.92,0.202l0.48,0.034l-0.017,0.481
						c-0.045,1.389-0.104,2.524-0.204,3.923L302.057,155.844z M298.205,154.658c1.006,0.068,1.902,0.115,2.921,0.153
						c0.067-1.015,0.114-1.912,0.151-2.921c-1.032-0.068-1.932-0.115-2.92-0.151C298.291,152.731,298.244,153.63,298.205,154.658z"
						/>
				</g>
			</g>
			<g>
				<g>
					<path fill="#D65690" d="M294.688,155.458l-0.48-0.016c-1.389-0.045-2.525-0.104-3.923-0.204l-0.479-0.034l0.016-0.48
						c0.048-1.402,0.106-2.539,0.207-3.923l0.035-0.479l0.479,0.016c1.42,0.048,2.556,0.107,3.92,0.205l0.479,0.035l-0.017,0.48
						c-0.044,1.354-0.104,2.49-0.202,3.92L294.688,155.458z M290.837,154.274c1.015,0.067,1.912,0.114,2.921,0.15
						c0.068-1.031,0.115-1.931,0.151-2.92c-0.993-0.066-1.892-0.113-2.919-0.151C290.922,152.358,290.875,153.257,290.837,154.274z"
						/>
				</g>
			</g>
			<g>
				<g>
					<path fill="#D65690" d="M302.438,148.476l-0.479-0.017c-1.437-0.049-2.571-0.108-3.92-0.207l-0.479-0.035l0.017-0.479
						c0.044-1.354,0.104-2.489,0.202-3.918l0.035-0.48l0.48,0.017c1.396,0.046,2.533,0.104,3.923,0.205l0.479,0.035l-0.017,0.479
						c-0.047,1.402-0.105,2.538-0.206,3.921L302.438,148.476z M298.591,147.289c0.984,0.067,1.884,0.115,2.919,0.154
						c0.068-1.005,0.115-1.903,0.153-2.92c-1.009-0.068-1.908-0.115-2.921-0.152C298.674,145.403,298.627,146.302,298.591,147.289z"
						/>
				</g>
			</g>
		</g>
		<g>
			<g>
				<path fill="#3AA96A" d="M154.342,11.297c-0.397,0-0.774-0.239-0.93-0.632l-3.684-9.297c-0.204-0.513,0.048-1.094,0.562-1.298
					c0.512-0.205,1.094,0.048,1.298,0.562l3.684,9.298c0.203,0.513-0.048,1.094-0.562,1.298
					C154.589,11.274,154.465,11.297,154.342,11.297z"/>
			</g>
			<g>
				<path fill="#3AA96A" d="M147.852,8.491c-0.398,0-0.774-0.24-0.93-0.632c-0.204-0.513,0.048-1.094,0.562-1.298l9.297-3.685
					c0.512-0.203,1.095,0.047,1.298,0.563c0.203,0.513-0.048,1.094-0.562,1.298L148.22,8.42
					C148.099,8.468,147.975,8.491,147.852,8.491z"/>
			</g>
		</g>
		<g>
			<g>
				<path fill="#FF7300" d="M62.951,119.267c-0.264,0-0.527-0.104-0.724-0.311l-6.901-7.237c-0.381-0.398-0.366-1.032,0.034-1.413
					c0.398-0.381,1.033-0.366,1.414,0.033l6.901,7.237c0.381,0.399,0.366,1.033-0.034,1.414
					C63.447,119.175,63.199,119.267,62.951,119.267z"/>
			</g>
			<g>
				<path fill="#FF7300" d="M55.881,119.099c-0.264,0-0.527-0.104-0.724-0.311c-0.381-0.398-0.366-1.033,0.034-1.414l7.237-6.9
					c0.398-0.382,1.033-0.366,1.414,0.033c0.381,0.399,0.366,1.033-0.034,1.414l-7.237,6.901
					C56.378,119.007,56.129,119.099,55.881,119.099z"/>
			</g>
		</g>
		<g opacity="0.5">
			<g>
				<path fill="#FF7300" d="M78.408,167.611c-0.064,0-0.128-0.006-0.193-0.02l-9.813-1.926c-0.542-0.105-0.895-0.632-0.789-1.174
					c0.106-0.543,0.633-0.896,1.174-0.789l9.813,1.926c0.542,0.106,0.895,0.632,0.789,1.174
					C79.294,167.281,78.876,167.611,78.408,167.611z"/>
			</g>
			<g>
				<path fill="#FF7300" d="M72.539,171.556c-0.064,0-0.128-0.007-0.193-0.02c-0.542-0.105-0.895-0.632-0.789-1.174l1.925-9.814
					c0.106-0.542,0.635-0.896,1.174-0.789c0.542,0.106,0.895,0.633,0.789,1.175l-1.925,9.813
					C73.425,171.225,73.007,171.556,72.539,171.556z"/>
			</g>
		</g>
		<g>
			<g>
				<g>
					<path fill="#D65690" d="M243.279,20.708c-0.26,0-0.521-0.109-0.711-0.29c-0.18-0.189-0.289-0.45-0.289-0.71
						s0.109-0.52,0.289-0.71c0.371-0.37,1.052-0.37,1.422,0c0.189,0.19,0.289,0.45,0.289,0.71s-0.1,0.521-0.289,0.71
						C243.8,20.598,243.55,20.708,243.279,20.708z"/>
				</g>
				<g>
					<path fill="#D65690" d="M241.87,28.598c-0.54-0.091-0.91-0.601-0.83-1.141l0,0c0.09-0.55,0.59-0.92,1.14-0.84l0,0
						c-0.539-0.09-0.91-0.6-0.83-1.14l0,0c0.09-0.54,0.602-0.92,1.15-0.83l0,0c0.54,0.09,0.92,0.6,0.83,1.14l0,0
						c-0.08,0.55-0.59,0.92-1.141,0.84l0,0c0.539,0.09,0.91,0.601,0.83,1.141l0,0c-0.08,0.489-0.511,0.84-0.99,0.84l0,0
						C241.979,28.608,241.93,28.608,241.87,28.598z M242.5,24.648c-0.55-0.09-0.92-0.601-0.83-1.141l0,0
						c0.08-0.55,0.6-0.92,1.141-0.84l0,0c0.549,0.09,0.92,0.601,0.83,1.15l0,0c-0.08,0.49-0.5,0.84-0.979,0.84l0,0
						C242.6,24.658,242.55,24.658,242.5,24.648z M242.811,22.668c-0.541-0.08-0.92-0.59-0.83-1.14l0,0
						c0.09-0.54,0.601-0.92,1.141-0.83l0,0c0.55,0.09,0.92,0.6,0.84,1.14l0,0c-0.08,0.5-0.51,0.851-0.99,0.851l0,0
						C242.92,22.688,242.87,22.677,242.811,22.668z"/>
				</g>
				<g>
					<path fill="#D65690" d="M241.721,30.588c-0.261,0-0.521-0.109-0.711-0.29c-0.18-0.189-0.289-0.449-0.289-0.71
						c0-0.27,0.109-0.52,0.289-0.71c0.37-0.37,1.051-0.37,1.42,0c0.18,0.19,0.29,0.45,0.29,0.71c0,0.261-0.11,0.521-0.29,0.71
						C242.24,30.478,241.979,30.588,241.721,30.588z"/>
				</g>
			</g>
			<g>
				<g>
					<path fill="#D65690" d="M247.439,26.427c-0.26,0-0.521-0.1-0.711-0.289c-0.188-0.19-0.289-0.45-0.289-0.711
						c0-0.26,0.101-0.52,0.289-0.71c0.381-0.369,1.051-0.369,1.42,0c0.182,0.19,0.291,0.45,0.291,0.71
						c0,0.271-0.109,0.521-0.291,0.711C247.96,26.318,247.7,26.427,247.439,26.427z"/>
				</g>
				<g>
					<path fill="#D65690" d="M245.311,26.108c-0.551-0.09-0.92-0.601-0.84-1.15l0,0c-0.08,0.55-0.591,0.92-1.141,0.83l0,0
						c-0.54-0.08-0.92-0.6-0.83-1.14l0,0c-0.09,0.54-0.602,0.92-1.15,0.83l0,0c-0.539-0.08-0.91-0.601-0.83-1.141l0,0
						c-0.08,0.54-0.6,0.91-1.14,0.83l0,0c-0.55-0.09-0.92-0.6-0.83-1.14l0,0c0.091-0.55,0.601-0.92,1.14-0.84l0,0
						c0.552,0.09,0.92,0.6,0.83,1.149l0,0c0.09-0.55,0.602-0.92,1.15-0.83l0,0c0.54,0.08,0.92,0.601,0.83,1.141l0,0
						c0.09-0.54,0.6-0.92,1.141-0.83l0,0c0.549,0.09,0.92,0.6,0.83,1.14l0,0c0.09-0.54,0.6-0.92,1.149-0.83l0,0
						c0.54,0.09,0.92,0.601,0.83,1.15l0,0c-0.08,0.49-0.5,0.84-0.979,0.84l0,0C245.41,26.118,245.359,26.108,245.311,26.108z"/>
				</g>
				<g>
					<path fill="#D65690" d="M237.561,24.868c-0.261,0-0.521-0.11-0.711-0.29c-0.18-0.189-0.289-0.45-0.289-0.71
						s0.109-0.52,0.289-0.71c0.37-0.37,1.051-0.37,1.42,0c0.19,0.19,0.291,0.45,0.291,0.71s-0.101,0.521-0.291,0.71
						C238.08,24.758,237.818,24.868,237.561,24.868z"/>
				</g>
			</g>
		</g>
		<g>
			<path fill="#FF831D" d="M194.016,44.648H194c-0.374,0-0.75-0.203-1.117-0.273c-0.542-0.104-0.896-0.713-0.791-1.256
				c0.105-0.541,0.626-0.935,1.172-0.833c0.241,0.047,0.489,0.05,0.736,0.05c0.553,0,1.007,0.604,1.007,1.156
				S194.566,44.648,194.016,44.648z M196.693,43.497c-0.32,0-0.637-0.155-0.83-0.441c-0.309-0.458-0.188-1.08,0.271-1.389
				c0.208-0.14,0.402-0.3,0.58-0.479c0.392-0.392,1.022-0.392,1.414-0.001c0.392,0.39,0.392,1.022,0.002,1.415
				c-0.269,0.269-0.563,0.513-0.879,0.725C197.08,43.441,196.887,43.497,196.693,43.497z M190.598,42.915
				c-0.255,0-0.51-0.097-0.705-0.291c-0.27-0.268-0.514-0.563-0.727-0.877c-0.311-0.458-0.189-1.079,0.268-1.389
				c0.459-0.311,1.08-0.189,1.39,0.268c0.141,0.208,0.302,0.403,0.479,0.58c0.393,0.39,0.395,1.022,0.004,1.414
				C191.111,42.816,190.854,42.915,190.598,42.915z M198.743,40.423c-0.063,0-0.13-0.006-0.196-0.019
				c-0.542-0.108-0.895-0.634-0.785-1.176c0.049-0.242,0.072-0.493,0.072-0.746c0-0.552,0.28-1.028,0.833-1.028
				s0.833,0.419,0.833,0.971v0.058c0,0.384,0.13,0.767,0.057,1.137C199.461,40.094,199.211,40.423,198.743,40.423z M189.334,39.496
				c-0.553,0-0.834-0.434-0.834-0.986v-0.027c0-0.371-0.131-0.742-0.063-1.103c0.104-0.543,0.543-0.896,1.086-0.795
				c0.543,0.104,0.856,0.627,0.754,1.17c-0.047,0.237-0.006,0.481-0.006,0.728C190.271,39.034,189.887,39.496,189.334,39.496z
				 M197.991,36.753c-0.32,0-0.634-0.152-0.828-0.438c-0.14-0.204-0.3-0.396-0.479-0.572c-0.395-0.386-0.4-1.02-0.016-1.414
				c0.387-0.394,1.02-0.401,1.414-0.016c0.273,0.269,0.521,0.563,0.734,0.877c0.312,0.457,0.192,1.079-0.265,1.389
				C198.381,36.697,198.186,36.753,197.991,36.753z M190.559,36.089c-0.254,0-0.509-0.096-0.703-0.288
				c-0.394-0.388-0.396-1.021-0.01-1.415c0.268-0.27,0.562-0.515,0.873-0.729c0.457-0.31,1.079-0.194,1.391,0.261
				c0.313,0.456,0.195,1.079-0.262,1.391c-0.207,0.142-0.402,0.304-0.578,0.482C191.073,35.99,190.814,36.089,190.559,36.089z
				 M194.9,34.732c-0.063,0-0.123-0.005-0.187-0.018c-0.233-0.044-0.476-0.065-0.715-0.065c-0.554,0-1.021-0.448-1.021-1
				s0.426-1,0.979-1H194c0.364,0,0.729,0.034,1.084,0.101c0.543,0.103,0.9,0.625,0.798,1.167
				C195.792,34.397,195.372,34.732,194.9,34.732z"/>
		</g>
		<g>
			<g>
				<path fill="#D65690" d="M90,75.596c-0.453,0-0.864-0.311-0.972-0.771c-0.027-0.115-0.033-0.231-0.021-0.342
					c-0.013-0.113-0.007-0.229,0.021-0.347c0.128-0.537,0.672-0.864,1.205-0.74l0.481,0.11c0.456,0.104,0.779,0.509,0.779,0.976
					s-0.323,0.872-0.779,0.975l-0.484,0.111C90.153,75.588,90.076,75.596,90,75.596z"/>
			</g>
			<g>
				<path fill="#D65690" d="M83.936,79.714c-0.124,0-0.25-0.022-0.372-0.071c-0.512-0.206-0.761-0.788-0.556-1.302
					c0.145-0.36,0.296-0.682,0.462-0.982c0.268-0.482,0.875-0.658,1.359-0.392c0.483,0.269,0.658,0.876,0.391,1.359
					c-0.128,0.231-0.246,0.483-0.356,0.759C84.708,79.477,84.332,79.714,83.936,79.714z M86.359,76.829
					c-0.353,0-0.694-0.187-0.876-0.517c-0.267-0.483-0.091-1.093,0.393-1.358c0.299-0.165,0.624-0.318,0.98-0.461
					c0.516-0.206,1.095,0.042,1.301,0.554c0.206,0.513-0.042,1.096-0.554,1.302c-0.276,0.11-0.529,0.229-0.762,0.356
					C86.688,76.789,86.522,76.829,86.359,76.829z"/>
			</g>
			<g>
				<path fill="#D65690" d="M83,82.974c-0.467,0-0.872-0.323-0.975-0.779l-0.111-0.484c-0.127-0.538,0.207-1.076,0.744-1.202
					c0.114-0.026,0.23-0.033,0.342-0.021c0.114-0.014,0.229-0.007,0.346,0.021c0.537,0.128,0.869,0.667,0.741,1.205l-0.111,0.481
					C83.872,82.65,83.467,82.974,83,82.974z"/>
			</g>
			<g>
				<path fill="#D65690" d="M82.063,79.711c-0.396,0-0.771-0.236-0.928-0.627c-0.111-0.275-0.229-0.528-0.357-0.762
					c-0.267-0.483-0.091-1.092,0.393-1.358c0.485-0.267,1.092-0.091,1.358,0.394c0.165,0.299,0.318,0.624,0.461,0.979
					c0.206,0.513-0.042,1.096-0.554,1.302C82.314,79.688,82.188,79.711,82.063,79.711z M79.639,76.827
					c-0.163,0-0.329-0.04-0.482-0.125c-0.232-0.127-0.484-0.245-0.761-0.355c-0.512-0.206-0.761-0.788-0.556-1.302
					c0.206-0.512,0.788-0.76,1.301-0.556c0.356,0.143,0.682,0.296,0.981,0.461c0.483,0.267,0.66,0.875,0.393,1.358
					C80.333,76.64,79.991,76.827,79.639,76.827z"/>
			</g>
			<g>
				<path fill="#D65690" d="M76.001,75.596c-0.076,0-0.153-0.009-0.23-0.027l-0.484-0.111c-0.456-0.103-0.779-0.508-0.779-0.975
					s0.323-0.872,0.779-0.976l0.481-0.11c0.538-0.125,1.077,0.203,1.205,0.741c0.028,0.115,0.034,0.232,0.021,0.346
					c0.013,0.11,0.007,0.227-0.021,0.342C76.865,75.286,76.455,75.596,76.001,75.596z"/>
			</g>
			<g>
				<path fill="#D65690" d="M78.772,74.546c-0.396,0-0.771-0.236-0.928-0.627c-0.206-0.512,0.042-1.095,0.554-1.301
					c0.276-0.111,0.528-0.229,0.759-0.356c0.483-0.268,1.092-0.094,1.359,0.391c0.268,0.482,0.093,1.092-0.39,1.358
					c-0.298,0.166-0.62,0.317-0.982,0.464C79.022,74.522,78.896,74.546,78.772,74.546z M81.654,72.121
					c-0.163,0-0.329-0.04-0.482-0.125c-0.483-0.267-0.66-0.875-0.393-1.357c0.127-0.232,0.245-0.484,0.356-0.762
					c0.206-0.512,0.788-0.76,1.301-0.556c0.512,0.206,0.761,0.788,0.556,1.301c-0.143,0.356-0.296,0.683-0.461,0.981
					C82.349,71.935,82.007,72.121,81.654,72.121z"/>
			</g>
			<g>
				<path fill="#D65690" d="M83.112,68.482c-0.038,0-0.075-0.002-0.113-0.006c-0.112,0.014-0.227,0.008-0.342-0.021
					c-0.538-0.126-0.871-0.665-0.744-1.202l0.111-0.483c0.103-0.456,0.508-0.779,0.975-0.779s0.872,0.323,0.975,0.779l0.111,0.48
					c0.128,0.537-0.204,1.077-0.741,1.205C83.267,68.473,83.189,68.482,83.112,68.482z"/>
			</g>
			<g>
				<path fill="#D65690" d="M87.232,74.547c-0.124,0-0.25-0.022-0.372-0.071c-0.361-0.146-0.682-0.296-0.983-0.462
					c-0.483-0.269-0.658-0.876-0.391-1.359c0.268-0.482,0.876-0.658,1.359-0.391c0.231,0.128,0.483,0.245,0.759,0.355
					c0.512,0.206,0.761,0.788,0.556,1.301C88.004,74.309,87.628,74.547,87.232,74.547z M84.348,72.124
					c-0.352,0-0.693-0.186-0.875-0.515c-0.166-0.298-0.317-0.62-0.463-0.982c-0.206-0.512,0.042-1.095,0.554-1.301
					c0.514-0.205,1.095,0.042,1.301,0.554c0.111,0.276,0.229,0.528,0.356,0.76c0.268,0.482,0.093,1.092-0.39,1.358
					C84.678,72.083,84.512,72.124,84.348,72.124z"/>
			</g>
		</g>
	</g>
</g>
</svg>
